PathFileType	4	(X/Y/Z)	C:/Users/opensim2020/Desktop/walking_exp_matlab/subject03_walking11_straight_01.trc																																																																																																																																								
DataRate	CameraRate	NumFrames	NumMarkers	Units	OrigDataRate	OrigDataStartFrame	OrigNumFrames																																																																																																																																				
100	100	4	46	mm	100	974	454																																																																																																																																				
Frame#	Time	LFHD			RFHD			LBHD			RBHD			C7			T10			CLAV			STRN			RBAK			LSHO			LUPA			LELB			LFRM			LWRA			LWRB			LFIN			RSHO			RUPA			RELB			RFRM			RWRA			RWRB			RFIN			LASI			RASI			LPSI			RPSI			LTHI			LKNE			LTIB			LANK			LHEE			LTOE			RTHI			RKNE			RTIB			RANK			RHEE			RTOE			*39			*40			*41			*42			*43			*44			*45		
		X1	Y1	Z1	X2	Y2	Z2	X3	Y3	Z3	X4	Y4	Z4	X5	Y5	Z5	X6	Y6	Z6	X7	Y7	Z7	X8	Y8	Z8	X9	Y9	Z9	X10	Y10	Z10	X11	Y11	Z11	X12	Y12	Z12	X13	Y13	Z13	X14	Y14	Z14	X15	Y15	Z15	X16	Y16	Z16	X17	Y17	Z17	X18	Y18	Z18	X19	Y19	Z19	X20	Y20	Z20	X21	Y21	Z21	X22	Y22	Z22	X23	Y23	Z23	X24	Y24	Z24	X25	Y25	Z25	X26	Y26	Z26	X27	Y27	Z27	X28	Y28	Z28	X29	Y29	Z29	X30	Y30	Z30	X31	Y31	Z31	X32	Y32	Z32	X33	Y33	Z33	X34	Y34	Z34	X35	Y35	Z35	X36	Y36	Z36	X37	Y37	Z37	X38	Y38	Z38	X39	Y39	Z39	X40	Y40	Z40	X41	Y41	Z41	X42	Y42	Z42	X43	Y43	Z43	X44	Y44	Z44	X45	Y45	Z45	X46	Y46	Z46
																																																																																																																																											
341	3.4	744.75922	1617.85132	1402.10559	749.9068	1622.05237	1534.92285	613.24951	1586.25671	1411.96631	623.32373	1589.78406	1542.35767	575.12317	1425.48157	1475.69031	532.37726	1111.56128	1478.82776	692.63501	1343.85693	1462.36511	731.99048	1178.87378	1455.15881	526.33191	1251.99084	1580.07751	631.3078	1382.23291	1312.60571	597.31335	1185.35193	1244.07361	594.53015	1062.40894	1230.68152	617.88342	934.3855	1226.5033	640.09503	816.12817	1253.76294	609.32611	821.98273	1206.95422	626.34222	739.03748	1213.14954	665.82861	1370.55774	1625.40356	708.0578	1155.84094	1701.87817	749.40753	1051.03491	1712.96106	797.51251	922.547	1711.77588	840.99664	835.35315	1670.34619	821.85846	826.04297	1720.25244	860.005	763.30554	1707.5011	691.40906	946.67365	1350.59741	704.1748	944.54999	1587.08936	531.09967	964.45996	1405.76855	541.15723	978.05652	1555.23108	712.95514	652.45197	1298.58521	772.77808	483.54849	1326.86841	697.62274	299.17181	1334.36169	645.3288	98.56352	1379.82495	600.84595	69.41093	1422.18445	782.35858	44.52454	1390.56042	634.60443	651.29028	1622.3269	633.94513	471.35931	1584.31348	570.68536	289.94452	1585.10986	523.98517	79.17219	1531.66699	478.25781	50.41571	1481.31421	664.32684	36.2005	1512.7511	670.13727	1685.84705	1459.52185	NaN	NaN	NaN	NaN	NaN	NaN	NaN	NaN	NaN	NaN	NaN	NaN	NaN	NaN	NaN	NaN	NaN	NaN
342	3.41	751.466	1617.28149	1401.75452	756.80127	1621.70056	1534.30957	619.80438	1585.64063	1411.58093	630.25592	1589.36292	1542.00366	581.88049	1425.08984	1475.53101	538.7149	1111.22949	1478.47852	699.26929	1343.34143	1462.1665	738.11023	1178.22778	1455.03857	532.98444	1251.79578	1580.04431	637.71021	1381.74121	1312.38037	602.57526	1185.05054	1243.74951	598.88025	1061.92786	1230.80969	621.93768	933.8891	1226.88916	643.60321	815.50122	1254.28284	612.87885	821.42145	1207.55371	630.19287	738.58875	1213.41284	672.84564	1370.25403	1625.07031	715.92755	1155.93787	1701.73499	757.87323	1051.40735	1712.74341	807.18176	923.39368	1711.05444	851.39594	836.79913	1669.15344	832.57428	827.09772	1719.10522	871.41638	764.92572	1705.9834	698.00702	946.14722	1350.76392	710.14178	944.22034	1587.34839	539.84918	963.40881	1406.11768	547.17993	977.72736	1554.93555	719.3739	651.77478	1298.9552	779.82971	483.24994	1328.255	712.96735	296.05954	1335.19861	670.91278	92.81361	1380.16406	628.22784	61.54774	1422.14905	810.49988	44.83329	1391.8092	639.02979	651.12488	1622.41467	636.88605	471.25046	1584.57251	572.24139	290.23846	1585.25415	524.22284	79.638	1531.69312	478.23865	51.29364	1481.08972	664.4552	36.15939	1512.82568	676.96167	1684.94116	1458.66968	NaN	NaN	NaN	NaN	NaN	NaN	NaN	NaN	NaN	NaN	NaN	NaN	NaN	NaN	NaN	NaN	NaN	NaN
343	3.42	758.13794	1616.75354	1401.07813	763.69556	1621.32605	1533.59888	626.53168	1585.00244	1411.17676	637.21857	1588.95691	1541.55164	588.65546	1424.81812	1475.35913	545.16168	1110.67517	1478.03564	705.9812	1342.83337	1461.90002	744.1095	1177.57288	1454.88708	539.68207	1251.5835	1579.90918	644.27448	1381.2074	1312.0531	607.32819	1184.52307	1244.11792	603.51929	1061.38464	1230.9696	626.13483	933.31445	1227.23962	647.24658	815.03729	1254.95728	616.59253	820.92773	1208.0791	633.74054	738.10785	1214.06128	679.78973	1369.85425	1624.75964	723.63586	1155.90625	1701.56714	766.17712	1051.66992	1712.40979	816.66504	924.1424	1710.27271	861.55524	838.17944	1667.88306	843.02344	828.0719	1717.84595	882.51544	766.39941	1704.33203	704.78015	945.46582	1350.82568	716.13843	943.86505	1587.55701	544.01868	963.45837	1405.16809	553.25696	977.38483	1554.58606	725.16229	650.8067	1299.39636	786.50073	482.69858	1329.84558	728.20111	293.24368	1335.99707	696.31842	87.83172	1380.32385	654.81299	54.97339	1422.49573	838.09607	45.38203	1393.10193	643.46271	650.98419	1622.50049	639.84235	471.18463	1584.89258	573.54077	290.56583	1585.25134	524.39099	80.10107	1531.77625	478.3876	52.06048	1481.08484	664.4859	35.99693	1512.84424	683.68243	1684.36511	1457.97522	NaN	NaN	NaN	NaN	NaN	NaN	NaN	NaN	NaN	NaN	NaN	NaN	NaN	NaN	NaN	NaN	NaN	NaN
344	3.43	764.82874	1616.15344	1400.34021	770.61084	1620.92761	1532.85168	633.20166	1584.34937	1410.74158	644.06158	1588.47363	1541.09509	595.39984	1424.29114	1475.09009	551.3045	1110.35974	1477.53259	712.68994	1342.24536	1461.53564	750.5697	1176.89832	1454.7135	546.40527	1251.2594	1579.68811	650.85065	1380.65002	1311.74548	612.79785	1184.0769	1243.93909	608.48419	1060.96655	1231.09021	630.40118	932.76965	1227.58997	651.1236	814.47833	1255.44373	620.37958	820.33459	1208.69556	637.18085	737.59375	1214.76611	686.70367	1369.40442	1624.33374	731.19489	1155.78613	1701.30627	774.29248	1051.80457	1712.10486	825.91095	924.73578	1709.38708	871.41876	839.39197	1666.47095	853.27191	828.92328	1716.52173	893.38171	767.77466	1702.58276	711.44183	944.75977	1350.92139	722.17444	943.50342	1587.67676	550.5188	962.89734	1404.75708	559.42487	977.0235	1554.22205	730.53259	649.57452	1299.80103	792.8609	482.04181	1331.43982	743.10425	290.85303	1336.84998	721.36633	83.37187	1380.24231	681.35931	49.39717	1422.34326	865.18524	46.15648	1394.19507	647.9635	650.79974	1622.625	642.84088	471.0556	1585.16577	575.35162	290.83441	1585.62695	524.73175	80.68719	1531.98804	478.54831	52.96119	1481.17285	664.61365	35.82768	1512.92859	690.31036	1683.49731	1456.50537	NaN	NaN	NaN	NaN	NaN	NaN	NaN	NaN	NaN	NaN	NaN	NaN	NaN	NaN	NaN	NaN	NaN	NaN
